<svg width="10" height="10" viewBox="0 0 10 10" fill="none" xmlns="http://www.w3.org/2000/svg">
<path fill-rule="evenodd" clip-rule="evenodd" d="M1.66671 0.999999C1.66671 0.631809 1.96518 0.333332 2.33337 0.333332L9.00004 0.333332C9.17685 0.333332 9.34642 0.40357 9.47145 0.528595C9.59647 0.653619 9.66671 0.823188 9.66671 0.999999V7.66667C9.66671 8.03486 9.36823 8.33333 9.00004 8.33333C8.63185 8.33333 8.33337 8.03485 8.33337 7.66667L8.33337 2.60947L1.47145 9.4714C1.2111 9.73175 0.788986 9.73175 0.528636 9.4714C0.268287 9.21105 0.268287 8.78894 0.528636 8.52859L7.39057 1.66667L2.33337 1.66667C1.96518 1.66667 1.66671 1.36819 1.66671 0.999999Z" fill="#8B92BC"/>
</svg>
