<svg width="270" height="50" viewBox="0 0 270 50" fill="none" xmlns="http://www.w3.org/2000/svg">
<path fill-rule="evenodd" clip-rule="evenodd" d="M270 8.7571C269.853 8.9125 269.709 9.07078 269.568 9.23199L267.904 3.40799L256.256 10.8962L253.76 5.90399C252.928 11.1733 248.435 21.5456 237.12 20.88C230.76 20.5059 228.101 17.7762 225.285 14.8853C221.838 11.3475 218.157 7.56799 207.168 7.56799C195.598 7.56799 192.932 8.73197 193.289 9.79535C188.501 6.29057 178.133 0.911987 165.568 0.911987C155.009 0.911987 146.881 2.7353 140.449 4.17806C136.238 5.12257 132.755 5.90399 129.792 5.90399C123.802 5.90399 120.64 3.13066 119.808 1.74399C117.312 5.34933 109.99 14.5568 100.672 22.544C101.504 15.6107 100.838 1.74399 91.52 1.74399C89.024 1.74399 84.032 2.90879 84.032 7.568C84.032 12.2272 86.8054 12.8373 88.192 12.56C88.7467 11.4507 90.5216 9.23199 93.184 9.23199C94.5707 9.23199 97.3441 10.5632 97.3441 15.888C97.3441 22.544 86.528 39.184 79.04 39.184V34.192C77.376 35.3013 73.0496 37.52 69.056 37.52C65.0624 37.52 60.736 32.528 59.072 30.032C60.736 28.368 64.064 22.8768 64.064 14.224C61.8454 18.6613 54.7456 27.7024 44.096 28.368C33.4464 29.0336 29.12 32.528 28.288 34.192C28.0107 30.864 25.792 24.208 19.136 24.208C19.968 24.4853 21.632 26.0384 21.632 30.032C21.3547 33.9147 16.64 41.8464 0 42.512C0 45.008 3.99361 50 19.968 50C35.9424 50 50.4747 40.016 55.744 35.024C57.1307 38.0747 62.2336 44.176 71.552 44.176C77.2209 44.176 82.4956 40.8259 87.7599 37.4824C93.3122 33.956 98.8529 30.4369 104.832 30.864C114.15 31.5296 118.144 40.016 118.976 44.176L122.304 40.016C123.968 42.512 128.627 47.504 133.952 47.504V42.512C137.557 45.008 147.43 50 158.08 50C171.392 50 186.368 45.84 185.536 35.024C184.87 26.3712 179.712 26.9813 177.216 28.368L178.048 31.696C179.712 31.1413 183.04 30.864 183.04 34.192C183.04 38.352 178.048 44.176 168.064 44.176C160.077 44.176 146.432 37.52 140.608 34.192C141.163 31.1413 140.109 25.04 131.456 25.04L132.288 20.048C128.96 21.712 119.309 25.04 107.328 25.04C113.984 18.9387 131.456 6.90239 148.096 7.56799C164.736 8.23359 165.013 20.048 163.072 25.872C166.123 25.5947 172.224 23.2096 172.224 15.888C174.997 18.6613 182.707 24.208 191.36 24.208C200.013 24.208 205.504 32.528 207.168 36.688C207.445 30.3093 206.502 17.3856 200.512 16.72C202.176 14.5013 207.002 11.5616 212.992 17.552V11.728C219.648 15.3333 232.96 25.04 232.96 35.024C232.96 45.008 226.304 42.512 222.976 40.016L219.648 46.672C220.757 47.504 223.642 49.168 226.304 49.168C229.632 49.168 237.12 41.68 237.12 36.688V28.368C242.944 33.0827 254.592 43.6768 254.592 48.336C256.533 47.7813 261.747 46.672 267.072 46.672C267.902 46.672 268.888 46.7238 270 46.8144V41.6022C256.46 38.916 246.69 31.1116 242.944 26.7042C248.768 25.0401 261.747 23.5424 267.072 30.864L266.24 25.872C267.324 25.7274 268.657 25.4435 270 24.9966V8.7571Z" fill="url(#paint0_linear_232:4362)"/>
<defs>
<linearGradient id="paint0_linear_232:4362" x1="-129.5" y1="-98.5" x2="263" y2="69.5" gradientUnits="userSpaceOnUse">
<stop stop-color="#192365"/>
<stop offset="1" stop-color="#050A2A"/>
</linearGradient>
</defs>
</svg>
