<svg width="433" height="511" viewBox="0 0 433 511" fill="none" xmlns="http://www.w3.org/2000/svg">
<path d="M433 16.3752V13.1469C432.747 13.3074 432.493 13.4682 432.24 13.6291C426.688 17.1555 421.147 20.6746 415.168 20.2475C405.849 19.5818 401.856 11.0955 401.024 6.93546L397.696 11.0955C396.032 8.59946 391.373 3.60745 386.048 3.60745V8.59946C382.443 6.10345 372.569 1.11145 361.92 1.11145C348.608 1.11145 333.632 5.27145 334.464 16.0875C335.129 24.7403 340.288 24.1301 342.784 22.7435L341.952 19.4155C340.288 19.9701 336.96 20.2475 336.96 16.9195C336.96 12.7595 341.952 6.93546 351.936 6.93546C359.923 6.93546 373.568 13.5915 379.392 16.9195C378.837 19.9701 379.891 26.0715 388.544 26.0715L387.712 31.0635C391.04 29.3995 400.691 26.0715 412.672 26.0715C406.016 32.1728 388.544 44.2091 371.904 43.5435C355.264 42.8779 354.987 31.0635 356.928 25.2395C353.877 25.5168 347.776 27.9019 347.776 35.2235C345.003 32.4501 337.293 26.9035 328.64 26.9035C319.987 26.9035 314.496 18.5835 312.832 14.4235C312.554 20.8021 313.497 33.7259 319.488 34.3914C317.824 36.6101 312.998 39.5499 307.008 33.5594V39.3835C300.352 35.7781 287.04 26.0715 287.04 16.0875C287.04 6.10345 293.696 8.59946 297.024 11.0955L300.352 4.43945C299.243 3.60745 296.358 1.94345 293.696 1.94345C290.368 1.94345 282.88 9.43146 282.88 14.4235V22.7435C277.056 18.0288 265.408 7.43466 265.408 2.77545C263.466 3.33011 258.253 4.43945 252.928 4.43945C250.062 4.43945 245.347 3.82272 239.976 3.12024L239.975 3.12006C232.87 2.1908 224.617 1.11145 217.984 1.11145C208.665 1.11145 195.797 7.76746 190.528 11.0955C188.309 9.43146 182.873 6.10345 178.88 6.10345C176.759 6.10345 172.236 8.65579 167.033 11.592C159.988 15.5678 151.696 20.2475 146.432 20.2475C139.11 20.2475 132.842 11.3728 130.624 6.93546L128.128 11.0955C126.741 8.59946 122.304 3.60745 115.648 3.60745V8.59927C112.042 6.10333 102.669 1.11145 94.0158 1.11145C83.1998 1.11145 63.2318 5.27112 63.2318 16.0873C63.2318 24.7402 68.2238 24.6846 70.7198 23.5752L73.2158 20.2475H72.3838C70.4424 20.5246 66.5598 20.247 66.5598 16.9192C66.5598 12.7595 71.5518 6.93546 81.5358 6.93546C89.523 6.93546 103.168 13.5913 108.992 16.9192C108.714 20.5246 110.157 27.7355 118.144 27.7355L117.312 31.0635C120.085 29.3994 128.793 26.0713 141.44 26.0713C135.616 31.8954 119.808 43.3771 103.168 42.7115C86.5278 42.0459 85.1411 31.3407 86.5278 26.0713C83.4771 25.2393 77.3758 25.9051 77.3758 35.2235C74.3251 32.7275 66.3934 27.7355 59.0718 27.7355C51.7502 27.7355 44.9278 18.8606 42.4318 14.4232C45.2051 29.6766 59.4046 58.1864 94.0158 50.1992C128.627 42.212 132.288 46.3166 129.792 49.3672L149.76 28.5672C147.818 39.9379 148.262 59.0184 165.568 44.3752L160.576 40.2152C155.861 42.7112 146.431 40.2152 156.416 23.5752C158.912 19.4155 169.728 11.0952 171.392 16.9192C173.333 15.5326 178.713 13.4249 184.704 16.0873C181.653 19.6926 176.051 28.9001 178.048 36.8873C179.989 33.2819 186.701 25.572 198.016 23.5752C209.331 21.5785 212.714 17.7513 212.992 16.0873C212.714 19.6926 213.99 26.7369 221.312 26.0713C219.093 20.5246 219.481 9.26489 238.784 8.59927C258.086 7.93369 272.341 18.8606 277.056 24.4073C271.232 26.0714 258.253 27.5691 252.928 20.2475L253.76 25.2395C249.6 25.7941 241.779 28.4011 243.776 34.3914C239.338 37.7194 227.635 44.3752 216.32 44.3752C205.005 44.3752 202.176 38.274 202.176 35.2235C202.453 33.0048 203.673 29.2331 206.336 31.8955C203.84 28.8448 198.848 25.2395 198.848 35.2235C198.848 47.7035 220.48 50.1995 227.136 50.1995C233.792 50.1995 244.608 48.5355 250.432 41.8795L252.096 47.7035L263.744 40.2152L266.24 45.2075C267.072 39.9381 271.565 29.5659 282.88 30.2315C289.24 30.6056 291.899 33.3352 294.715 36.2262C298.162 39.764 301.843 43.5435 312.832 43.5435C324.402 43.5435 327.068 42.3795 326.71 41.3161C331.499 44.8209 341.867 50.1995 354.432 50.1995C364.991 50.1995 373.119 48.3762 379.551 46.9334L379.553 46.933C383.763 45.9887 387.246 45.2075 390.208 45.2075C396.198 45.2075 399.36 47.9808 400.192 49.3675C402.688 45.7621 410.009 36.5547 419.328 28.5675C418.496 35.5008 419.161 49.3675 428.48 49.3675C429.686 49.3675 431.473 49.0957 433 48.2897V38.551C432.561 38.4692 432.144 38.4843 431.808 38.5515C431.253 39.6608 429.478 41.8795 426.816 41.8795C425.429 41.8795 422.656 40.5483 422.656 35.2235C422.656 30.7552 427.53 21.7876 433 16.3752Z" fill="url(#paint0_linear_102:272)"/>
<path d="M13.3117 33.28C28.565 36.0533 57.0749 50.2528 49.0877 84.864C41.1005 119.475 45.205 123.136 48.2557 120.64L27.4557 140.608C38.8263 138.667 57.9069 139.11 43.2637 156.416L39.1037 151.424C41.5997 146.709 39.1037 137.279 22.4637 147.264C18.3039 149.76 9.98365 160.576 15.8077 162.24C14.421 164.181 12.3133 169.562 14.9757 175.552C18.581 172.501 27.7885 166.899 35.7757 168.896C32.1703 170.837 24.4604 177.549 22.4637 188.864C20.4669 200.179 16.6397 203.563 14.9757 203.84C18.581 203.563 25.6253 204.838 24.9597 212.16C19.413 209.941 8.15331 210.33 7.48771 229.632C6.82211 248.934 17.749 263.189 23.2957 267.904C24.9598 262.08 26.4575 249.101 19.1359 243.776L24.1279 244.608C24.6826 240.448 27.2895 232.627 33.2799 234.624C36.6078 230.187 43.2637 218.483 43.2637 207.168C43.2637 195.853 37.1625 193.024 34.1119 193.024C31.8932 193.301 28.1215 194.522 30.7839 197.184C27.7332 194.688 24.1279 189.696 34.1119 189.696C46.5919 189.696 49.0879 211.328 49.0879 217.984C49.0879 224.64 47.4239 235.456 40.7679 241.28L46.5919 242.944L39.1037 254.592L44.0959 257.088C38.8266 257.92 28.4543 262.413 29.1199 273.728C29.494 280.088 32.2236 282.747 35.1146 285.563C38.6524 289.01 42.4319 292.691 42.4319 303.68C42.4319 315.25 41.2679 317.916 40.2045 317.559C43.7093 322.347 49.0879 332.715 49.0879 345.28C49.0879 355.839 47.2646 363.968 45.8218 370.399C44.8773 374.61 44.0959 378.094 44.0959 381.056C44.0959 387.047 46.8692 390.208 48.2559 391.04C44.6506 393.536 35.4431 400.858 27.4559 410.176C34.3892 409.344 48.2559 410.01 48.2559 419.328C48.2559 421.824 47.0911 426.816 42.4319 426.816C37.7727 426.816 37.1626 424.043 37.4399 422.656C38.5492 422.101 40.7679 420.327 40.7679 417.664C40.7679 416.277 39.4367 413.504 34.1119 413.504C27.4559 413.504 10.8159 424.32 10.8159 431.808H15.8079C14.6986 433.472 12.4799 437.799 12.4799 441.792C12.4799 445.786 17.4719 450.112 19.9679 451.776C21.6319 450.112 27.1231 446.784 35.7759 446.784C31.3386 449.003 22.2975 456.103 21.6319 466.752C20.9663 477.402 17.4719 481.728 15.8079 482.56C19.1359 482.837 25.7919 485.056 25.7919 491.712C25.5146 490.88 23.9615 489.216 19.9679 489.216C16.0852 489.493 8.15348 494.208 7.48788 510.848C4.99188 510.848 -0.00012207 506.855 -0.00012207 490.88C-0.00012207 474.906 9.98388 460.373 14.9759 455.104C11.9252 453.717 5.82388 448.615 5.82388 439.296C5.82388 433.627 9.17401 428.353 12.5175 423.088C16.0439 417.536 19.563 411.995 19.1359 406.016C18.4703 396.698 9.98388 392.704 5.82388 391.872L9.98388 388.544C7.48788 386.88 2.49588 382.221 2.49588 376.896H7.48788C4.99188 373.291 -0.00012207 363.418 -0.00012207 352.768C-0.00012207 339.456 4.15988 324.48 14.9759 325.312C23.6287 325.978 23.0186 331.136 21.6319 333.632L18.3039 332.8C18.8586 331.136 19.1359 327.808 15.8079 327.808C11.6479 327.808 5.82388 332.8 5.82388 342.784C5.82388 350.771 12.4799 364.416 15.8079 370.24C18.8586 369.685 24.9599 370.739 24.9599 379.392L29.9519 378.56C28.2879 381.888 24.9599 391.539 24.9599 403.52C31.0612 396.864 43.0975 379.392 42.4319 362.752C41.7663 346.112 29.9519 345.835 24.1279 347.776C24.4052 344.725 26.7903 338.624 34.1119 338.624C31.3386 335.851 25.7919 328.141 25.7919 319.488C25.7919 310.835 17.4719 305.344 13.3119 303.68C19.6906 303.403 32.6143 304.346 33.2799 310.336C35.4986 308.672 38.4383 303.846 32.4479 297.856H38.2719C34.6666 291.2 24.9599 277.888 14.9759 277.888C4.99188 277.888 7.48788 284.544 9.98388 287.872L3.32788 291.2C2.49588 290.091 0.831878 287.206 0.831878 284.544C0.831878 281.216 8.31988 273.728 13.3119 273.728H21.6319C16.9172 267.904 6.32308 256.256 1.66388 256.256C2.21855 254.315 3.32788 249.101 3.32788 243.776C3.32788 240.911 2.7111 236.195 2.00859 230.824C1.07925 223.718 -0.00012207 215.466 -0.00012207 208.832C-0.00012207 199.514 6.65588 186.645 9.98388 181.376C8.31988 179.157 4.99188 173.722 4.99188 169.728C4.99188 167.607 7.54433 163.084 10.4806 157.881C14.4564 150.836 19.1359 142.544 19.1359 137.28C19.1359 129.958 10.2612 123.691 5.82388 121.472L9.98388 118.976C7.48788 117.589 2.49588 113.152 2.49588 106.496H7.48771C4.99176 102.891 -0.00012207 93.5168 -0.00012207 84.864C-0.00012207 74.048 4.15953 54.08 14.9757 54.08C23.6287 54.08 23.5731 59.072 22.4637 61.568L19.1359 64.064V63.232C19.4131 61.2906 19.1355 57.408 15.8077 57.408C11.6479 57.408 5.82388 62.4 5.82388 72.384C5.82388 80.3712 12.4797 94.016 15.8077 99.84C19.4131 99.5627 26.6239 101.005 26.6239 108.992L29.9519 108.16C28.2878 110.933 24.9597 119.642 24.9597 132.288C30.7838 126.464 42.2655 110.656 41.5999 94.016C40.9343 77.376 30.2291 75.9893 24.9597 77.376C24.1278 74.3253 24.7935 68.224 34.1119 68.224C31.6159 65.1733 26.6239 57.2416 26.6239 49.92C26.6239 42.5984 17.7491 35.776 13.3117 33.28Z" fill="url(#paint1_linear_102:272)"/>
<path d="M67.3921 364.416H62.4001V75.4511H58.2155C61.8238 69.0189 56.5813 57.0826 53.509 51.9185C58.6731 54.9908 70.6093 60.2334 77.0416 56.625V61.568H433V66.56H77.0416L77.0415 75.4511H67.3921V364.416Z" fill="url(#paint2_linear_102:272)"/>
<path d="M67.3922 128.128C67.6695 131.179 71.053 137.28 82.3682 137.28C77.3762 134.229 67.3922 123.968 67.3922 107.328V128.128Z" fill="url(#paint3_linear_102:272)"/>
<path d="M52.416 185.536C57.7408 185.536 61.2907 183.317 62.4 182.208V175.552C57.6854 177.771 48.256 180.544 48.256 173.888C48.256 167.232 52.6934 165.568 54.912 165.568C54.912 165.013 53.9136 163.904 49.92 163.904C44.928 163.904 42.432 168.896 42.432 173.888C42.432 178.88 45.76 185.536 52.416 185.536Z" fill="url(#paint4_linear_102:272)"/>
<path d="M77.8859 77.0121V77.522H77.3762L77.8859 78.0317V85.2485L86.1223 86.4251C83.769 89.955 79.1802 99.721 79.6508 110.546C80.1215 121.371 92.0054 132.706 97.8885 137.02C97.8885 140.942 95.4175 148.669 85.5338 148.198L79.0624 148.786C78.8663 151.336 80.0037 156.317 86.1222 155.846C93.7702 155.258 102.007 145.845 101.418 131.137C96.5158 128.98 86.8283 121.724 87.2989 109.958C86.7105 106.624 87.2988 98.8973 94.3586 94.6615L98.4768 98.7797V112.899H105.537L113.263 105.173V98.1129H99.1437L95.0255 93.9948C99.2614 86.935 106.988 86.3467 110.322 86.935C122.088 86.4644 129.344 96.152 131.501 101.055C146.209 101.643 155.622 93.4064 156.21 85.7583C156.681 79.6398 151.7 78.5024 149.15 78.6985L148.562 85.17C149.033 95.0536 141.306 97.5246 137.384 97.5247C133.07 91.6415 121.735 79.7576 110.91 79.287C100.085 78.8163 90.319 83.4052 86.7892 85.7584L85.6125 77.522H78.3958L77.8859 77.0121Z" fill="url(#paint5_linear_102:272)"/>
<path d="M27.4068 1.99844C23.7984 8.43066 29.041 20.3669 32.1133 25.531C26.9491 22.4586 15.0126 17.2158 8.58038 20.8241L8.58038 1.99805L27.4068 1.99844Z" fill="url(#paint6_linear_102:272)"/>
<path d="M5.8238 47.424C7.4878 46.8693 11.4814 46.0928 14.1438 47.424C13.0345 42.9866 9.1518 33.9456 2.4958 33.28C4.43714 36.0533 7.82061 42.7648 5.8238 47.424Z" fill="url(#paint7_linear_102:272)"/>
<path d="M58.2399 11.6479C56.9087 8.98553 57.6852 4.99194 58.2399 3.32794C53.5807 5.32474 46.8692 1.94128 44.0959 -6.10352e-05C44.7615 6.65594 53.8026 10.5386 58.2399 11.6479Z" fill="url(#paint8_linear_102:272)"/>
<defs>
<linearGradient id="paint0_linear_102:272" x1="56.4999" y1="36.5" x2="91" y2="175" gradientUnits="userSpaceOnUse">
<stop stop-color="#192365"/>
<stop offset="1" stop-color="#050A2A"/>
</linearGradient>
<linearGradient id="paint1_linear_102:272" x1="56.4999" y1="36.5" x2="91" y2="175" gradientUnits="userSpaceOnUse">
<stop stop-color="#192365"/>
<stop offset="1" stop-color="#050A2A"/>
</linearGradient>
<linearGradient id="paint2_linear_102:272" x1="56.4999" y1="36.5" x2="91" y2="175" gradientUnits="userSpaceOnUse">
<stop stop-color="#192365"/>
<stop offset="1" stop-color="#050A2A"/>
</linearGradient>
<linearGradient id="paint3_linear_102:272" x1="56.4999" y1="36.5" x2="91" y2="175" gradientUnits="userSpaceOnUse">
<stop stop-color="#192365"/>
<stop offset="1" stop-color="#050A2A"/>
</linearGradient>
<linearGradient id="paint4_linear_102:272" x1="56.4999" y1="36.5" x2="91" y2="175" gradientUnits="userSpaceOnUse">
<stop stop-color="#192365"/>
<stop offset="1" stop-color="#050A2A"/>
</linearGradient>
<linearGradient id="paint5_linear_102:272" x1="56.4999" y1="36.5" x2="91" y2="175" gradientUnits="userSpaceOnUse">
<stop stop-color="#192365"/>
<stop offset="1" stop-color="#050A2A"/>
</linearGradient>
<linearGradient id="paint6_linear_102:272" x1="56.4999" y1="36.5" x2="91" y2="175" gradientUnits="userSpaceOnUse">
<stop stop-color="#192365"/>
<stop offset="1" stop-color="#050A2A"/>
</linearGradient>
<linearGradient id="paint7_linear_102:272" x1="56.4999" y1="36.5" x2="91" y2="175" gradientUnits="userSpaceOnUse">
<stop stop-color="#192365"/>
<stop offset="1" stop-color="#050A2A"/>
</linearGradient>
<linearGradient id="paint8_linear_102:272" x1="56.4999" y1="36.5" x2="91" y2="175" gradientUnits="userSpaceOnUse">
<stop stop-color="#192365"/>
<stop offset="1" stop-color="#050A2A"/>
</linearGradient>
</defs>
</svg>
